<mxfile host="app.diagrams.net" modified="2023-06-24T10:15:38.041Z" agent="Mozilla/5.0 (Windows NT 10.0; Win64; x64) AppleWebKit/537.36 (KHTML, like Gecko) Chrome/114.0.0.0 Safari/537.36" etag="CSsfm5bkO77Q_USDZcSj" version="21.3.8" type="device">
  <diagram name="Page-1" id="RE-ZZDFEmMJYet2l0tSi">
    <mxGraphModel dx="2350" dy="1884" grid="1" gridSize="10" guides="1" tooltips="1" connect="1" arrows="1" fold="1" page="1" pageScale="1" pageWidth="850" pageHeight="1100" math="0" shadow="0">
      <root>
        <mxCell id="0" />
        <mxCell id="1" parent="0" />
        <mxCell id="c4yyAY-54eXBfBhVZNMp-21" style="rounded=0;orthogonalLoop=1;jettySize=auto;html=1;exitX=0;exitY=0;exitDx=0;exitDy=0;entryX=1;entryY=0.75;entryDx=0;entryDy=0;" edge="1" parent="1" source="c4yyAY-54eXBfBhVZNMp-1" target="c4yyAY-54eXBfBhVZNMp-15">
          <mxGeometry relative="1" as="geometry" />
        </mxCell>
        <mxCell id="c4yyAY-54eXBfBhVZNMp-22" style="rounded=0;orthogonalLoop=1;jettySize=auto;html=1;exitX=0.25;exitY=0;exitDx=0;exitDy=0;entryX=1;entryY=1;entryDx=0;entryDy=0;" edge="1" parent="1" source="c4yyAY-54eXBfBhVZNMp-1" target="c4yyAY-54eXBfBhVZNMp-2">
          <mxGeometry relative="1" as="geometry" />
        </mxCell>
        <mxCell id="c4yyAY-54eXBfBhVZNMp-23" style="rounded=0;orthogonalLoop=1;jettySize=auto;html=1;exitX=0.5;exitY=0;exitDx=0;exitDy=0;entryX=0.5;entryY=1;entryDx=0;entryDy=0;" edge="1" parent="1" source="c4yyAY-54eXBfBhVZNMp-1" target="c4yyAY-54eXBfBhVZNMp-4">
          <mxGeometry relative="1" as="geometry" />
        </mxCell>
        <mxCell id="c4yyAY-54eXBfBhVZNMp-24" style="rounded=0;orthogonalLoop=1;jettySize=auto;html=1;exitX=0.75;exitY=0;exitDx=0;exitDy=0;entryX=0;entryY=1;entryDx=0;entryDy=0;" edge="1" parent="1" source="c4yyAY-54eXBfBhVZNMp-1" target="c4yyAY-54eXBfBhVZNMp-3">
          <mxGeometry relative="1" as="geometry" />
        </mxCell>
        <mxCell id="c4yyAY-54eXBfBhVZNMp-25" style="rounded=0;orthogonalLoop=1;jettySize=auto;html=1;exitX=1;exitY=0;exitDx=0;exitDy=0;entryX=0;entryY=0.75;entryDx=0;entryDy=0;" edge="1" parent="1" source="c4yyAY-54eXBfBhVZNMp-1" target="c4yyAY-54eXBfBhVZNMp-18">
          <mxGeometry relative="1" as="geometry" />
        </mxCell>
        <mxCell id="c4yyAY-54eXBfBhVZNMp-26" style="rounded=0;orthogonalLoop=1;jettySize=auto;html=1;exitX=1;exitY=0.5;exitDx=0;exitDy=0;entryX=0;entryY=0.5;entryDx=0;entryDy=0;" edge="1" parent="1" source="c4yyAY-54eXBfBhVZNMp-1" target="c4yyAY-54eXBfBhVZNMp-11">
          <mxGeometry relative="1" as="geometry" />
        </mxCell>
        <mxCell id="c4yyAY-54eXBfBhVZNMp-27" style="rounded=0;orthogonalLoop=1;jettySize=auto;html=1;exitX=1;exitY=1;exitDx=0;exitDy=0;entryX=0;entryY=0.25;entryDx=0;entryDy=0;" edge="1" parent="1" source="c4yyAY-54eXBfBhVZNMp-1" target="c4yyAY-54eXBfBhVZNMp-17">
          <mxGeometry relative="1" as="geometry" />
        </mxCell>
        <mxCell id="c4yyAY-54eXBfBhVZNMp-28" style="rounded=0;orthogonalLoop=1;jettySize=auto;html=1;exitX=0.75;exitY=1;exitDx=0;exitDy=0;entryX=0;entryY=0;entryDx=0;entryDy=0;" edge="1" parent="1" source="c4yyAY-54eXBfBhVZNMp-1" target="c4yyAY-54eXBfBhVZNMp-13">
          <mxGeometry relative="1" as="geometry" />
        </mxCell>
        <mxCell id="c4yyAY-54eXBfBhVZNMp-29" style="rounded=0;orthogonalLoop=1;jettySize=auto;html=1;exitX=0.5;exitY=1;exitDx=0;exitDy=0;entryX=0.5;entryY=0;entryDx=0;entryDy=0;" edge="1" parent="1" source="c4yyAY-54eXBfBhVZNMp-1" target="c4yyAY-54eXBfBhVZNMp-5">
          <mxGeometry relative="1" as="geometry" />
        </mxCell>
        <mxCell id="c4yyAY-54eXBfBhVZNMp-30" style="rounded=0;orthogonalLoop=1;jettySize=auto;html=1;exitX=0.25;exitY=1;exitDx=0;exitDy=0;entryX=1;entryY=0;entryDx=0;entryDy=0;" edge="1" parent="1" source="c4yyAY-54eXBfBhVZNMp-1" target="c4yyAY-54eXBfBhVZNMp-14">
          <mxGeometry relative="1" as="geometry" />
        </mxCell>
        <mxCell id="c4yyAY-54eXBfBhVZNMp-31" style="rounded=0;orthogonalLoop=1;jettySize=auto;html=1;exitX=0;exitY=1;exitDx=0;exitDy=0;entryX=1;entryY=0.25;entryDx=0;entryDy=0;" edge="1" parent="1" source="c4yyAY-54eXBfBhVZNMp-1" target="c4yyAY-54eXBfBhVZNMp-19">
          <mxGeometry relative="1" as="geometry" />
        </mxCell>
        <mxCell id="c4yyAY-54eXBfBhVZNMp-32" style="rounded=0;orthogonalLoop=1;jettySize=auto;html=1;exitX=0;exitY=0.5;exitDx=0;exitDy=0;entryX=1;entryY=0.5;entryDx=0;entryDy=0;" edge="1" parent="1" source="c4yyAY-54eXBfBhVZNMp-1" target="c4yyAY-54eXBfBhVZNMp-16">
          <mxGeometry relative="1" as="geometry" />
        </mxCell>
        <mxCell id="c4yyAY-54eXBfBhVZNMp-1" value="REST API" style="rounded=0;whiteSpace=wrap;html=1;fillColor=#0050ef;strokeColor=#001DBC;fontColor=#ffffff;" vertex="1" parent="1">
          <mxGeometry x="380" y="250" width="120" height="60" as="geometry" />
        </mxCell>
        <mxCell id="c4yyAY-54eXBfBhVZNMp-36" style="edgeStyle=orthogonalEdgeStyle;rounded=0;orthogonalLoop=1;jettySize=auto;html=1;exitX=0;exitY=0.5;exitDx=0;exitDy=0;entryX=1;entryY=0.5;entryDx=0;entryDy=0;curved=1;" edge="1" parent="1" source="c4yyAY-54eXBfBhVZNMp-2" target="c4yyAY-54eXBfBhVZNMp-34">
          <mxGeometry relative="1" as="geometry" />
        </mxCell>
        <mxCell id="c4yyAY-54eXBfBhVZNMp-37" style="edgeStyle=orthogonalEdgeStyle;rounded=0;orthogonalLoop=1;jettySize=auto;html=1;exitX=0.25;exitY=0;exitDx=0;exitDy=0;entryX=0.5;entryY=1;entryDx=0;entryDy=0;curved=1;" edge="1" parent="1" source="c4yyAY-54eXBfBhVZNMp-2" target="c4yyAY-54eXBfBhVZNMp-35">
          <mxGeometry relative="1" as="geometry" />
        </mxCell>
        <mxCell id="c4yyAY-54eXBfBhVZNMp-38" style="edgeStyle=orthogonalEdgeStyle;rounded=0;orthogonalLoop=1;jettySize=auto;html=1;exitX=0;exitY=0.25;exitDx=0;exitDy=0;entryX=1;entryY=0.75;entryDx=0;entryDy=0;curved=1;" edge="1" parent="1" source="c4yyAY-54eXBfBhVZNMp-2" target="c4yyAY-54eXBfBhVZNMp-33">
          <mxGeometry relative="1" as="geometry" />
        </mxCell>
        <mxCell id="c4yyAY-54eXBfBhVZNMp-2" value="Javascript" style="rounded=1;whiteSpace=wrap;html=1;fillColor=#008a00;strokeColor=#005700;fontColor=#ffffff;" vertex="1" parent="1">
          <mxGeometry x="180" y="40" width="120" height="60" as="geometry" />
        </mxCell>
        <mxCell id="c4yyAY-54eXBfBhVZNMp-47" style="edgeStyle=orthogonalEdgeStyle;rounded=0;orthogonalLoop=1;jettySize=auto;html=1;exitX=0.75;exitY=0;exitDx=0;exitDy=0;entryX=0;entryY=0.5;entryDx=0;entryDy=0;curved=1;" edge="1" parent="1" source="c4yyAY-54eXBfBhVZNMp-3" target="c4yyAY-54eXBfBhVZNMp-45">
          <mxGeometry relative="1" as="geometry" />
        </mxCell>
        <mxCell id="c4yyAY-54eXBfBhVZNMp-48" style="edgeStyle=orthogonalEdgeStyle;rounded=0;orthogonalLoop=1;jettySize=auto;html=1;exitX=1;exitY=0.5;exitDx=0;exitDy=0;entryX=0;entryY=0.5;entryDx=0;entryDy=0;curved=1;" edge="1" parent="1" source="c4yyAY-54eXBfBhVZNMp-3" target="c4yyAY-54eXBfBhVZNMp-46">
          <mxGeometry relative="1" as="geometry" />
        </mxCell>
        <mxCell id="c4yyAY-54eXBfBhVZNMp-3" value="Java" style="rounded=1;whiteSpace=wrap;html=1;fillColor=#008a00;strokeColor=#005700;fontColor=#ffffff;" vertex="1" parent="1">
          <mxGeometry x="580" y="40" width="120" height="60" as="geometry" />
        </mxCell>
        <mxCell id="c4yyAY-54eXBfBhVZNMp-42" style="edgeStyle=orthogonalEdgeStyle;rounded=0;orthogonalLoop=1;jettySize=auto;html=1;exitX=0.25;exitY=0;exitDx=0;exitDy=0;entryX=0.5;entryY=1;entryDx=0;entryDy=0;curved=1;" edge="1" parent="1" source="c4yyAY-54eXBfBhVZNMp-4" target="c4yyAY-54eXBfBhVZNMp-39">
          <mxGeometry relative="1" as="geometry" />
        </mxCell>
        <mxCell id="c4yyAY-54eXBfBhVZNMp-43" style="edgeStyle=orthogonalEdgeStyle;rounded=0;orthogonalLoop=1;jettySize=auto;html=1;exitX=0.75;exitY=0;exitDx=0;exitDy=0;entryX=0.5;entryY=1;entryDx=0;entryDy=0;curved=1;" edge="1" parent="1" source="c4yyAY-54eXBfBhVZNMp-4" target="c4yyAY-54eXBfBhVZNMp-41">
          <mxGeometry relative="1" as="geometry" />
        </mxCell>
        <mxCell id="c4yyAY-54eXBfBhVZNMp-44" style="edgeStyle=orthogonalEdgeStyle;rounded=0;orthogonalLoop=1;jettySize=auto;html=1;exitX=0.5;exitY=0;exitDx=0;exitDy=0;entryX=0.5;entryY=1;entryDx=0;entryDy=0;curved=1;" edge="1" parent="1" source="c4yyAY-54eXBfBhVZNMp-4" target="c4yyAY-54eXBfBhVZNMp-40">
          <mxGeometry relative="1" as="geometry" />
        </mxCell>
        <mxCell id="c4yyAY-54eXBfBhVZNMp-4" value="Python" style="rounded=1;whiteSpace=wrap;html=1;fillColor=#008a00;strokeColor=#005700;fontColor=#ffffff;" vertex="1" parent="1">
          <mxGeometry x="380" width="120" height="60" as="geometry" />
        </mxCell>
        <mxCell id="c4yyAY-54eXBfBhVZNMp-64" style="edgeStyle=orthogonalEdgeStyle;rounded=0;orthogonalLoop=1;jettySize=auto;html=1;exitX=0.25;exitY=1;exitDx=0;exitDy=0;entryX=0.5;entryY=0;entryDx=0;entryDy=0;curved=1;" edge="1" parent="1" source="c4yyAY-54eXBfBhVZNMp-5" target="c4yyAY-54eXBfBhVZNMp-63">
          <mxGeometry relative="1" as="geometry" />
        </mxCell>
        <mxCell id="c4yyAY-54eXBfBhVZNMp-65" style="edgeStyle=orthogonalEdgeStyle;rounded=0;orthogonalLoop=1;jettySize=auto;html=1;exitX=0.75;exitY=1;exitDx=0;exitDy=0;entryX=0.5;entryY=0;entryDx=0;entryDy=0;curved=1;" edge="1" parent="1" source="c4yyAY-54eXBfBhVZNMp-5" target="c4yyAY-54eXBfBhVZNMp-62">
          <mxGeometry relative="1" as="geometry" />
        </mxCell>
        <mxCell id="c4yyAY-54eXBfBhVZNMp-5" value="C#" style="rounded=1;whiteSpace=wrap;html=1;fillColor=#008a00;strokeColor=#005700;fontColor=#ffffff;" vertex="1" parent="1">
          <mxGeometry x="380" y="500" width="120" height="60" as="geometry" />
        </mxCell>
        <mxCell id="c4yyAY-54eXBfBhVZNMp-55" style="edgeStyle=orthogonalEdgeStyle;rounded=0;orthogonalLoop=1;jettySize=auto;html=1;exitX=1;exitY=0.5;exitDx=0;exitDy=0;entryX=0;entryY=0.5;entryDx=0;entryDy=0;curved=1;" edge="1" parent="1" source="c4yyAY-54eXBfBhVZNMp-11" target="c4yyAY-54eXBfBhVZNMp-54">
          <mxGeometry relative="1" as="geometry" />
        </mxCell>
        <mxCell id="c4yyAY-54eXBfBhVZNMp-11" value="Ruby" style="rounded=1;whiteSpace=wrap;html=1;fillColor=#008a00;strokeColor=#005700;fontColor=#ffffff;" vertex="1" parent="1">
          <mxGeometry x="680" y="250" width="120" height="60" as="geometry" />
        </mxCell>
        <mxCell id="c4yyAY-54eXBfBhVZNMp-60" style="edgeStyle=orthogonalEdgeStyle;rounded=0;orthogonalLoop=1;jettySize=auto;html=1;exitX=1;exitY=0.5;exitDx=0;exitDy=0;entryX=0;entryY=0.5;entryDx=0;entryDy=0;curved=1;" edge="1" parent="1" source="c4yyAY-54eXBfBhVZNMp-13" target="c4yyAY-54eXBfBhVZNMp-59">
          <mxGeometry relative="1" as="geometry" />
        </mxCell>
        <mxCell id="c4yyAY-54eXBfBhVZNMp-61" style="edgeStyle=orthogonalEdgeStyle;rounded=0;orthogonalLoop=1;jettySize=auto;html=1;exitX=0.5;exitY=1;exitDx=0;exitDy=0;entryX=0.5;entryY=0;entryDx=0;entryDy=0;curved=1;" edge="1" parent="1" source="c4yyAY-54eXBfBhVZNMp-13" target="c4yyAY-54eXBfBhVZNMp-58">
          <mxGeometry relative="1" as="geometry" />
        </mxCell>
        <mxCell id="c4yyAY-54eXBfBhVZNMp-13" value="PHP" style="rounded=1;whiteSpace=wrap;html=1;fillColor=#008a00;strokeColor=#005700;fontColor=#ffffff;" vertex="1" parent="1">
          <mxGeometry x="580" y="460" width="120" height="60" as="geometry" />
        </mxCell>
        <mxCell id="c4yyAY-54eXBfBhVZNMp-68" style="edgeStyle=orthogonalEdgeStyle;rounded=0;orthogonalLoop=1;jettySize=auto;html=1;exitX=0.5;exitY=1;exitDx=0;exitDy=0;entryX=0.5;entryY=0;entryDx=0;entryDy=0;curved=1;" edge="1" parent="1" source="c4yyAY-54eXBfBhVZNMp-14" target="c4yyAY-54eXBfBhVZNMp-66">
          <mxGeometry relative="1" as="geometry" />
        </mxCell>
        <mxCell id="c4yyAY-54eXBfBhVZNMp-69" style="edgeStyle=orthogonalEdgeStyle;rounded=0;orthogonalLoop=1;jettySize=auto;html=1;exitX=0;exitY=0.5;exitDx=0;exitDy=0;entryX=1;entryY=0.5;entryDx=0;entryDy=0;curved=1;" edge="1" parent="1" source="c4yyAY-54eXBfBhVZNMp-14" target="c4yyAY-54eXBfBhVZNMp-67">
          <mxGeometry relative="1" as="geometry" />
        </mxCell>
        <mxCell id="c4yyAY-54eXBfBhVZNMp-14" value="Go" style="rounded=1;whiteSpace=wrap;html=1;fillColor=#008a00;strokeColor=#005700;fontColor=#ffffff;" vertex="1" parent="1">
          <mxGeometry x="180" y="460" width="120" height="60" as="geometry" />
        </mxCell>
        <mxCell id="c4yyAY-54eXBfBhVZNMp-76" style="edgeStyle=orthogonalEdgeStyle;rounded=0;orthogonalLoop=1;jettySize=auto;html=1;exitX=0;exitY=0.25;exitDx=0;exitDy=0;entryX=1;entryY=0.5;entryDx=0;entryDy=0;curved=1;" edge="1" parent="1" source="c4yyAY-54eXBfBhVZNMp-15" target="c4yyAY-54eXBfBhVZNMp-75">
          <mxGeometry relative="1" as="geometry" />
        </mxCell>
        <mxCell id="c4yyAY-54eXBfBhVZNMp-77" style="edgeStyle=orthogonalEdgeStyle;rounded=0;orthogonalLoop=1;jettySize=auto;html=1;exitX=0;exitY=0.75;exitDx=0;exitDy=0;entryX=1;entryY=0.5;entryDx=0;entryDy=0;curved=1;" edge="1" parent="1" source="c4yyAY-54eXBfBhVZNMp-15" target="c4yyAY-54eXBfBhVZNMp-74">
          <mxGeometry relative="1" as="geometry" />
        </mxCell>
        <mxCell id="c4yyAY-54eXBfBhVZNMp-15" value="Kotlin" style="rounded=1;whiteSpace=wrap;html=1;fillColor=#008a00;strokeColor=#005700;fontColor=#ffffff;" vertex="1" parent="1">
          <mxGeometry x="120" y="150" width="120" height="60" as="geometry" />
        </mxCell>
        <mxCell id="c4yyAY-54eXBfBhVZNMp-73" style="edgeStyle=orthogonalEdgeStyle;rounded=0;orthogonalLoop=1;jettySize=auto;html=1;exitX=0;exitY=0.5;exitDx=0;exitDy=0;entryX=1;entryY=0.5;entryDx=0;entryDy=0;curved=1;" edge="1" parent="1" source="c4yyAY-54eXBfBhVZNMp-16" target="c4yyAY-54eXBfBhVZNMp-72">
          <mxGeometry relative="1" as="geometry" />
        </mxCell>
        <mxCell id="c4yyAY-54eXBfBhVZNMp-16" value="Typescript" style="rounded=1;whiteSpace=wrap;html=1;fillColor=#008a00;strokeColor=#005700;fontColor=#ffffff;" vertex="1" parent="1">
          <mxGeometry x="80" y="250" width="120" height="60" as="geometry" />
        </mxCell>
        <mxCell id="c4yyAY-54eXBfBhVZNMp-57" style="edgeStyle=orthogonalEdgeStyle;rounded=0;orthogonalLoop=1;jettySize=auto;html=1;exitX=1;exitY=0.5;exitDx=0;exitDy=0;entryX=0;entryY=0.5;entryDx=0;entryDy=0;curved=1;" edge="1" parent="1" source="c4yyAY-54eXBfBhVZNMp-17" target="c4yyAY-54eXBfBhVZNMp-56">
          <mxGeometry relative="1" as="geometry" />
        </mxCell>
        <mxCell id="c4yyAY-54eXBfBhVZNMp-17" value="Rust" style="rounded=1;whiteSpace=wrap;html=1;fillColor=#008a00;strokeColor=#005700;fontColor=#ffffff;" vertex="1" parent="1">
          <mxGeometry x="640" y="360" width="120" height="60" as="geometry" />
        </mxCell>
        <mxCell id="c4yyAY-54eXBfBhVZNMp-52" style="edgeStyle=orthogonalEdgeStyle;rounded=0;orthogonalLoop=1;jettySize=auto;html=1;exitX=1;exitY=0.25;exitDx=0;exitDy=0;entryX=0;entryY=0.5;entryDx=0;entryDy=0;curved=1;" edge="1" parent="1" source="c4yyAY-54eXBfBhVZNMp-18" target="c4yyAY-54eXBfBhVZNMp-50">
          <mxGeometry relative="1" as="geometry" />
        </mxCell>
        <mxCell id="c4yyAY-54eXBfBhVZNMp-53" style="edgeStyle=orthogonalEdgeStyle;rounded=0;orthogonalLoop=1;jettySize=auto;html=1;exitX=1;exitY=0.75;exitDx=0;exitDy=0;entryX=0;entryY=0.5;entryDx=0;entryDy=0;curved=1;" edge="1" parent="1" source="c4yyAY-54eXBfBhVZNMp-18" target="c4yyAY-54eXBfBhVZNMp-51">
          <mxGeometry relative="1" as="geometry" />
        </mxCell>
        <mxCell id="c4yyAY-54eXBfBhVZNMp-18" value="Scala" style="rounded=1;whiteSpace=wrap;html=1;fillColor=#008a00;strokeColor=#005700;fontColor=#ffffff;" vertex="1" parent="1">
          <mxGeometry x="640" y="150" width="120" height="60" as="geometry" />
        </mxCell>
        <mxCell id="c4yyAY-54eXBfBhVZNMp-71" style="edgeStyle=orthogonalEdgeStyle;rounded=0;orthogonalLoop=1;jettySize=auto;html=1;exitX=0;exitY=0.5;exitDx=0;exitDy=0;entryX=1;entryY=0.5;entryDx=0;entryDy=0;curved=1;" edge="1" parent="1" source="c4yyAY-54eXBfBhVZNMp-19" target="c4yyAY-54eXBfBhVZNMp-70">
          <mxGeometry relative="1" as="geometry" />
        </mxCell>
        <mxCell id="c4yyAY-54eXBfBhVZNMp-19" value="Elixir" style="rounded=1;whiteSpace=wrap;html=1;fillColor=#008a00;strokeColor=#005700;fontColor=#ffffff;" vertex="1" parent="1">
          <mxGeometry x="120" y="360" width="120" height="60" as="geometry" />
        </mxCell>
        <mxCell id="c4yyAY-54eXBfBhVZNMp-33" value="Koa.js" style="rounded=1;whiteSpace=wrap;html=1;fillColor=#6a00ff;strokeColor=#3700CC;fontColor=#ffffff;" vertex="1" parent="1">
          <mxGeometry x="-40" y="-60" width="120" height="60" as="geometry" />
        </mxCell>
        <mxCell id="c4yyAY-54eXBfBhVZNMp-34" value="Express.js" style="rounded=1;whiteSpace=wrap;html=1;fillColor=#6a00ff;strokeColor=#3700CC;fontColor=#ffffff;" vertex="1" parent="1">
          <mxGeometry x="-60" y="20" width="120" height="60" as="geometry" />
        </mxCell>
        <mxCell id="c4yyAY-54eXBfBhVZNMp-35" value="NestJS" style="rounded=1;whiteSpace=wrap;html=1;fillColor=#6a00ff;strokeColor=#3700CC;fontColor=#ffffff;" vertex="1" parent="1">
          <mxGeometry x="90" y="-120" width="120" height="60" as="geometry" />
        </mxCell>
        <mxCell id="c4yyAY-54eXBfBhVZNMp-39" value="Django" style="rounded=1;whiteSpace=wrap;html=1;fillColor=#6a00ff;strokeColor=#3700CC;fontColor=#ffffff;" vertex="1" parent="1">
          <mxGeometry x="250" y="-120" width="120" height="60" as="geometry" />
        </mxCell>
        <mxCell id="c4yyAY-54eXBfBhVZNMp-40" value="Flask" style="rounded=1;whiteSpace=wrap;html=1;fillColor=#6a00ff;strokeColor=#3700CC;fontColor=#ffffff;" vertex="1" parent="1">
          <mxGeometry x="380" y="-140" width="120" height="60" as="geometry" />
        </mxCell>
        <mxCell id="c4yyAY-54eXBfBhVZNMp-41" value="FastAPI" style="rounded=1;whiteSpace=wrap;html=1;fillColor=#6a00ff;strokeColor=#3700CC;fontColor=#ffffff;" vertex="1" parent="1">
          <mxGeometry x="510" y="-120" width="120" height="60" as="geometry" />
        </mxCell>
        <mxCell id="c4yyAY-54eXBfBhVZNMp-45" value="Spring Boot" style="rounded=1;whiteSpace=wrap;html=1;fillColor=#6a00ff;strokeColor=#3700CC;fontColor=#ffffff;" vertex="1" parent="1">
          <mxGeometry x="740" y="-60" width="120" height="60" as="geometry" />
        </mxCell>
        <mxCell id="c4yyAY-54eXBfBhVZNMp-46" value="Micronaut" style="rounded=1;whiteSpace=wrap;html=1;fillColor=#6a00ff;strokeColor=#3700CC;fontColor=#ffffff;" vertex="1" parent="1">
          <mxGeometry x="780" y="20" width="120" height="60" as="geometry" />
        </mxCell>
        <mxCell id="c4yyAY-54eXBfBhVZNMp-50" value="Play" style="rounded=1;whiteSpace=wrap;html=1;fillColor=#6a00ff;strokeColor=#3700CC;fontColor=#ffffff;" vertex="1" parent="1">
          <mxGeometry x="850" y="100" width="120" height="60" as="geometry" />
        </mxCell>
        <mxCell id="c4yyAY-54eXBfBhVZNMp-51" value="Akka HTTP" style="rounded=1;whiteSpace=wrap;html=1;fillColor=#6a00ff;strokeColor=#3700CC;fontColor=#ffffff;" vertex="1" parent="1">
          <mxGeometry x="850" y="180" width="120" height="60" as="geometry" />
        </mxCell>
        <mxCell id="c4yyAY-54eXBfBhVZNMp-54" value="Ruby on Rails" style="rounded=1;whiteSpace=wrap;html=1;fillColor=#6a00ff;strokeColor=#3700CC;fontColor=#ffffff;" vertex="1" parent="1">
          <mxGeometry x="890" y="250" width="120" height="60" as="geometry" />
        </mxCell>
        <mxCell id="c4yyAY-54eXBfBhVZNMp-56" value="Rocket" style="rounded=1;whiteSpace=wrap;html=1;fillColor=#6a00ff;strokeColor=#3700CC;fontColor=#ffffff;" vertex="1" parent="1">
          <mxGeometry x="850" y="360" width="120" height="60" as="geometry" />
        </mxCell>
        <mxCell id="c4yyAY-54eXBfBhVZNMp-58" value="Lumen" style="rounded=1;whiteSpace=wrap;html=1;fillColor=#6a00ff;strokeColor=#3700CC;fontColor=#ffffff;" vertex="1" parent="1">
          <mxGeometry x="640" y="560" width="120" height="60" as="geometry" />
        </mxCell>
        <mxCell id="c4yyAY-54eXBfBhVZNMp-59" value="Laravel" style="rounded=1;whiteSpace=wrap;html=1;fillColor=#6a00ff;strokeColor=#3700CC;fontColor=#ffffff;" vertex="1" parent="1">
          <mxGeometry x="780" y="460" width="120" height="60" as="geometry" />
        </mxCell>
        <mxCell id="c4yyAY-54eXBfBhVZNMp-62" value="ServiceStack" style="rounded=1;whiteSpace=wrap;html=1;fillColor=#6a00ff;strokeColor=#3700CC;fontColor=#ffffff;" vertex="1" parent="1">
          <mxGeometry x="470" y="610" width="120" height="60" as="geometry" />
        </mxCell>
        <mxCell id="c4yyAY-54eXBfBhVZNMp-63" value="ASP.NET" style="rounded=1;whiteSpace=wrap;html=1;fillColor=#6a00ff;strokeColor=#3700CC;fontColor=#ffffff;" vertex="1" parent="1">
          <mxGeometry x="290" y="610" width="120" height="60" as="geometry" />
        </mxCell>
        <mxCell id="c4yyAY-54eXBfBhVZNMp-66" value="Revel" style="rounded=1;whiteSpace=wrap;html=1;fillColor=#6a00ff;strokeColor=#3700CC;fontColor=#ffffff;" vertex="1" parent="1">
          <mxGeometry x="120" y="560" width="120" height="60" as="geometry" />
        </mxCell>
        <mxCell id="c4yyAY-54eXBfBhVZNMp-67" value="Gin" style="rounded=1;whiteSpace=wrap;html=1;fillColor=#6a00ff;strokeColor=#3700CC;fontColor=#ffffff;" vertex="1" parent="1">
          <mxGeometry x="-20" y="460" width="120" height="60" as="geometry" />
        </mxCell>
        <mxCell id="c4yyAY-54eXBfBhVZNMp-70" value="Phoenix" style="rounded=1;whiteSpace=wrap;html=1;fillColor=#6a00ff;strokeColor=#3700CC;fontColor=#ffffff;" vertex="1" parent="1">
          <mxGeometry x="-90" y="360" width="120" height="60" as="geometry" />
        </mxCell>
        <mxCell id="c4yyAY-54eXBfBhVZNMp-72" value="NestJS" style="rounded=1;whiteSpace=wrap;html=1;fillColor=#6a00ff;strokeColor=#3700CC;fontColor=#ffffff;" vertex="1" parent="1">
          <mxGeometry x="-130" y="250" width="120" height="60" as="geometry" />
        </mxCell>
        <mxCell id="c4yyAY-54eXBfBhVZNMp-74" value="Ktor" style="rounded=1;whiteSpace=wrap;html=1;fillColor=#6a00ff;strokeColor=#3700CC;fontColor=#ffffff;" vertex="1" parent="1">
          <mxGeometry x="-90" y="180" width="120" height="60" as="geometry" />
        </mxCell>
        <mxCell id="c4yyAY-54eXBfBhVZNMp-75" value="Spring Boot" style="rounded=1;whiteSpace=wrap;html=1;fillColor=#6a00ff;strokeColor=#3700CC;fontColor=#ffffff;" vertex="1" parent="1">
          <mxGeometry x="-90" y="100" width="120" height="60" as="geometry" />
        </mxCell>
      </root>
    </mxGraphModel>
  </diagram>
</mxfile>
